<svg width="155" height="41" viewBox="0 0 155 41" fill="none" xmlns="http://www.w3.org/2000/svg">
<path d="M27.19,19.437c-0.486-1.451-1.661-2.596-3.143-3.063c-1.228-0.387-2.587-0.292-3.974,0.255   c0.746-0.956,1.18-1.692,1.224-2.264l0.002-0.039c0.067-1.379-1.919-3.259-3.841-5.078c-1.166-1.102-2.487-2.352-2.624-2.913   c-0.047-0.193-0.098-0.422-0.155-0.677c-0.447-2.011-1.195-5.376-3.238-5.653c-1.967-0.098-3.058,1.729-3.243,5.43   c-0.178,3.583,0.497,9.118,1.956,16.13c-0.38-0.68-0.652-1.133-0.74-1.204c-0.235-0.188-0.768-0.671-1.338-0.914   c-0.226-0.847-0.782-2.748-1.479-3.762c-0.455-0.662-1.273-0.86-1.885-0.764c-0.436,0.069-0.748,0.282-0.833,0.57   c-0.011,0.039-0.019,0.083-0.021,0.131c-0.135,0.088-0.229,0.201-0.269,0.332c-0.05,0.169-0.032,0.438,0.335,0.77l0.148-0.166   c-0.155-0.14-0.328-0.347-0.27-0.542c0.015-0.051,0.05-0.097,0.094-0.141c0.051,0.142,0.155,0.302,0.35,0.477l0.223-0.246   c-0.157-0.142-0.249-0.276-0.272-0.396c0.056-0.018,0.115-0.034,0.179-0.044c0.494-0.079,1.159,0.08,1.524,0.61   c0.538,0.782,0.996,2.193,1.25,3.082c-0.103,0.036-0.202,0.088-0.294,0.169c-0.834,0.724,0,2.334,0,2.334s6.002,8.615,6.892,9.615   c0.889,1,1.911,0.493,1.167-0.889c-0.28-0.521-1.072-2.053-1.972-3.78c0.931,0.749,2.429,1.567,3.219,1.979   c0.217,0.095,5.306,2.309,8.291,1.246c2.462,0.028,3.833-1.363,3.966-4.029C28.504,24.305,28.102,22.157,27.19,19.437z    M6.085,16.151c-0.42-0.611-1.177-0.794-1.743-0.706C4.32,15.45,4.301,15.458,4.28,15.462c0.098-0.1,0.271-0.178,0.484-0.212   c0.507-0.08,1.186,0.082,1.558,0.624c0.61,0.888,1.125,2.553,1.375,3.456c-0.11-0.021-0.22-0.03-0.327-0.021   C7.114,18.409,6.648,16.971,6.085,16.151z"></path>
</svg>
