<svg xmlns="http://www.w3.org/2000/svg" width="16" height="16" viewBox="0 0 16 16" fill="none">
  <path fill="white" d="M8 0C3.588 0 0 3.588 0 8c0 3.535 2.292 6.532 5.471 7.595.4.074.549-.173.549-.385 0-.19-.007-.695-.014-1.364-2.091.452-2.677-.957-2.677-.957-.36-.912-.88-1.156-.88-1.156-.717-.49.054-.481.054-.481.792.055 1.208.856 1.208.856.703 1.199 1.843.853 2.295.654.071-.51.274-.853.499-1.05-1.755-.201-3.592-.878-3.592-3.905 0-.862.303-1.567.799-2.116-.079-.201-.346-.941.076-1.963 0 0 .662-.212 2.173.824.632-.176 1.31-.264 1.983-.267.673.003 1.351.091 1.983.267 1.51-1.036 2.173-.824 2.173-.824.423 1.022.156 1.762.077 1.963.496.549.799 1.254.799 2.116 0 3.034-1.838 3.703-3.598 3.904.286.242.543.722.543 1.466 0 1.06-.012 1.915-.012 2.173 0 .215.144.464.553.385C13.708 14.532 16 11.535 16 8c0-4.412-3.588-8-8-8z"/>
</svg>
